<svg width="81" height="81" viewBox="0 0 81 81" fill="none" xmlns="http://www.w3.org/2000/svg">
<g id="ant-design:transaction-outlined">
<rect x="0.5" y="0.0549316" width="80" height="80" rx="20" fill="#D7F0FD" fill-opacity="0.6"/>
<path id="Vector" d="M49.2406 29.3387C49.2406 29.0931 49.0397 28.8921 48.7941 28.8921H45.7522C45.5848 28.8921 45.4285 28.987 45.356 29.1377L40.6285 38.5591H40.4443L35.7169 29.1377C35.6799 29.0643 35.6233 29.0024 35.5533 28.9591C35.4834 28.9158 35.4029 28.8926 35.3206 28.8921H32.2118C32.1392 28.8921 32.0667 28.9089 31.9997 28.948C31.782 29.0652 31.7039 29.3387 31.8211 29.5507L37.6201 40.2447H34.4387C34.1932 40.2447 33.9922 40.4456 33.9922 40.6912V42.2038C33.9922 42.4494 34.1932 42.6503 34.4387 42.6503H38.6806V44.827H34.4387C34.1932 44.827 33.9922 45.028 33.9922 45.2735V46.7861C33.9922 47.0317 34.1932 47.2326 34.4387 47.2326H38.6806V50.7712C38.6806 51.0168 38.8815 51.2177 39.1271 51.2177H41.9122C42.1578 51.2177 42.3587 51.0168 42.3587 50.7712V47.227H46.6173C46.8629 47.227 47.0639 47.0261 47.0639 46.7805V45.268C47.0639 45.0224 46.8629 44.8214 46.6173 44.8214H42.3587V42.6447H46.6173C46.8629 42.6447 47.0639 42.4438 47.0639 42.1982V40.6856C47.0639 40.44 46.8629 40.2391 46.6173 40.2391H43.4025L49.1904 29.5452C49.2183 29.4838 49.2406 29.4112 49.2406 29.3387ZM20.7364 39.6196C20.8413 34.5327 22.9116 29.6841 26.5132 26.0903C28.3271 24.2763 30.4369 22.8475 32.7867 21.854C35.2201 20.827 37.8043 20.3024 40.4667 20.3024C43.1346 20.3024 45.7187 20.8214 48.1467 21.854C50.4964 22.8475 52.6062 24.2763 54.4201 26.0903C54.9783 26.6484 55.4974 27.2345 55.9774 27.8428L53.1867 30.0252C53.1202 30.0766 53.0696 30.1457 53.0406 30.2247C53.0117 30.3036 53.0056 30.389 53.0231 30.4713C53.0406 30.5535 53.081 30.6291 53.1395 30.6894C53.1981 30.7497 53.2724 30.7922 53.3541 30.8121L62.1057 32.9498C62.3848 33.0168 62.6583 32.8047 62.6583 32.52L62.7029 23.5061C62.7029 23.1321 62.2732 22.92 61.9829 23.1545L59.315 25.2419C54.9392 19.6438 48.1243 16.0549 40.4722 16.0549C27.3839 16.0549 16.7401 26.5535 16.5001 39.5973C16.4986 39.6568 16.5091 39.7161 16.5309 39.7716C16.5526 39.827 16.5853 39.8776 16.6269 39.9202C16.6685 39.9629 16.7182 39.9968 16.7732 40.0199C16.8281 40.043 16.8871 40.055 16.9467 40.0549H20.2955C20.5355 40.0549 20.7308 39.8596 20.7364 39.6196ZM64.0536 40.0549H60.7048C60.4648 40.0549 60.2639 40.2503 60.2583 40.4903C60.1534 45.5771 58.0831 50.4258 54.4815 54.0196C52.6842 55.8244 50.5537 57.2631 48.208 58.2559C45.7746 59.2828 43.1904 59.8075 40.528 59.8075C37.8657 59.8075 35.276 59.2884 32.848 58.2559C30.5024 57.2631 28.3719 55.8244 26.5746 54.0196C26.0164 53.4614 25.4973 52.8754 25.0174 52.267L27.8025 50.0847C27.8689 50.0333 27.9196 49.9641 27.9485 49.8852C27.9774 49.8063 27.9835 49.7208 27.966 49.6386C27.9485 49.5564 27.9082 49.4808 27.8496 49.4205C27.7911 49.3602 27.7167 49.3176 27.635 49.2977L18.8834 47.16C18.6043 47.0931 18.3308 47.3052 18.3308 47.5898L18.2862 56.6149C18.2862 56.9889 18.716 57.201 19.0062 56.9666L21.6741 54.8791C26.0611 60.4661 32.876 64.0549 40.528 64.0549C53.6164 64.0549 64.2601 53.5563 64.5001 40.5126C64.5016 40.453 64.4912 40.3938 64.4694 40.3383C64.4476 40.2828 64.415 40.2323 64.3734 40.1896C64.3318 40.147 64.282 40.1131 64.2271 40.09C64.1722 40.0668 64.1132 40.0549 64.0536 40.0549Z" fill="#00C2FF"/>
</g>
</svg>
