<svg width="48" height="49" viewBox="0 0 48 49" fill="none" xmlns="http://www.w3.org/2000/svg">
<g id="carbon:dashboard">
<path id="Vector" d="M35.9016 31.5549H38.8516V39.0549H35.9016V31.5549ZM30.0016 24.0549H32.9516V39.0549H30.0016V24.0549ZM16.7266 39.0549C14.7713 39.0526 12.8968 38.2616 11.5142 36.8556C10.1317 35.4496 9.3539 33.5433 9.35156 31.5549H12.3016C12.3016 32.4449 12.5611 33.315 13.0473 34.055C13.5335 34.795 14.2246 35.3718 15.0332 35.7124C15.8418 36.053 16.7315 36.1421 17.5898 35.9685C18.4482 35.7948 19.2367 35.3662 19.8555 34.7369C20.4744 34.1076 20.8958 33.3058 21.0665 32.4328C21.2373 31.5599 21.1496 30.6551 20.8147 29.8329C20.4798 29.0106 19.9126 28.3078 19.185 27.8133C18.4573 27.3189 17.6017 27.0549 16.7266 27.0549V24.0549C18.6825 24.0549 20.5584 24.8451 21.9415 26.2516C23.3246 27.6582 24.1016 29.5658 24.1016 31.5549C24.1016 33.5441 23.3246 35.4517 21.9415 36.8582C20.5584 38.2648 18.6825 39.0549 16.7266 39.0549Z" fill="#B970DB"/>
<path id="Vector_2" d="M41.7992 3.05493H6.39922C5.61707 3.05573 4.86718 3.37205 4.31412 3.93449C3.76105 4.49693 3.45 5.25953 3.44922 6.05493V42.0549C3.45 42.8503 3.76105 43.6129 4.31412 44.1754C4.86718 44.7378 5.61707 45.0541 6.39922 45.0549H41.7992C42.5812 45.0537 43.3309 44.7373 43.8839 44.1749C44.4369 43.6126 44.748 42.8502 44.7492 42.0549V6.05493C44.7484 5.25953 44.4374 4.49693 43.8843 3.93449C43.3313 3.37205 42.5814 3.05573 41.7992 3.05493ZM41.7992 16.5549H21.1492V6.05493H41.7992V16.5549ZM18.1992 6.05493V16.5549H6.39922V6.05493H18.1992ZM6.39922 42.0549V19.5549H41.7992L41.8022 42.0549H6.39922Z" fill="#B970DB"/>
</g>
</svg>
