<svg width="81" height="81" viewBox="0 0 81 81" fill="none" xmlns="http://www.w3.org/2000/svg">
<g id="635643795ee93e2a1ea27f4b_code.svg">
<rect x="0.5" y="0.0549316" width="80" height="80" rx="20" fill="#DFF7F9"/>
<g id="Group 1261152858">
<path id="Vector" fill-rule="evenodd" clip-rule="evenodd" d="M39.7937 64.0549C38.023 62.9996 36.2861 61.8872 34.5858 60.7193C32.8521 59.5292 31.1842 58.2447 29.5889 56.8691C28.004 55.4865 26.516 53.999 25.1319 52.4099C23.7477 50.8173 22.5262 49.0847 21.4984 47.2366C20.4644 45.3678 19.6514 43.3824 19.0761 41.3214C18.4733 39.136 18.1717 36.8769 18.1798 34.6081V23.4075L19.9101 21.6575C21.0624 21.6575 22.1801 21.619 23.2667 21.5314C24.291 21.4509 25.3118 21.3004 26.3188 21.0834C27.3016 20.8664 28.2636 20.5654 29.1979 20.1874C30.1806 19.7744 31.1253 19.2738 32.0216 18.6928C33.292 17.8482 34.6705 17.1829 36.1187 16.7152C38.3654 16.0586 40.7238 15.8892 43.0396 16.2182C44.5287 16.428 45.9744 16.8808 47.3202 17.5588C48.0088 17.8983 48.6767 18.2728 49.3272 18.6858C50.2269 19.2703 51.1786 19.7709 52.1682 20.1839C53.1026 20.5654 54.0611 20.8629 55.0439 21.0799C56.0509 21.2969 57.0751 21.4509 58.1029 21.5314C59.1791 21.6155 60.2968 21.654 61.4491 21.654L63.1794 23.404V34.6046C63.1911 36.8741 62.893 39.1344 62.2935 41.3214C61.7181 43.3824 60.9051 45.3678 59.8712 47.2366C58.8404 49.0837 57.6227 50.8174 56.2377 52.4099C54.8535 53.992 53.369 55.4795 51.7876 56.8551C50.1912 58.2339 48.5182 59.5194 46.7769 60.7053C45.0699 61.8752 43.3273 62.9912 41.5516 64.0514H39.7937V64.0549ZM21.6403 25.1226V34.6081C21.6264 36.5506 21.8825 38.4932 22.4016 40.3658C22.8998 42.1633 23.6085 43.8941 24.5124 45.5216C25.4225 47.1561 26.5022 48.6892 27.7307 50.0998C29.011 51.5593 30.3813 52.9349 31.8416 54.209C33.3366 55.497 34.8972 56.7011 36.5202 57.8141C37.9043 58.7487 39.2885 59.6447 40.6727 60.5058C42.0569 59.6587 43.441 58.7627 44.8252 57.8176C46.4516 56.7011 48.0192 55.497 49.5141 54.209C50.9709 52.9349 52.3413 51.5628 53.6182 50.1068C54.8437 48.6967 55.9221 47.1625 56.8364 45.5286C57.7395 43.901 58.4489 42.1684 58.9472 40.3728C59.4663 38.4932 59.7189 36.5577 59.7085 34.6081V25.1226C59.1583 25.1226 58.6254 25.0806 58.0994 25.0421L57.8261 25.0211C56.6421 24.9267 55.4654 24.7548 54.3033 24.5066C51.8763 23.9704 49.5617 23.006 47.4655 21.6575C46.9266 21.3126 46.3698 20.9971 45.7976 20.7124C44.7699 20.2013 43.6684 19.8587 42.5344 19.6974C40.7317 19.4301 38.8933 19.5567 37.143 20.0684C35.9942 20.4464 34.8972 20.9784 33.8902 21.6505C32.8106 22.3505 31.6755 22.9525 30.4886 23.446C29.3661 23.8991 28.2087 24.2585 27.0282 24.5206C25.8689 24.7656 24.6924 24.9406 23.5089 25.0316C22.9068 25.0666 22.2805 25.1016 21.6403 25.1226ZM42.6278 40.1733C43.7429 39.7147 44.6658 38.8783 45.2384 37.8073C45.8111 36.7362 45.9979 35.4972 45.7669 34.3022C45.5359 33.1073 44.9014 32.0307 43.9721 31.2567C43.0428 30.4827 41.8765 30.0595 40.6727 30.0595C39.4689 30.0595 38.3025 30.4827 37.3732 31.2567C36.444 32.0307 35.8095 33.1073 35.5785 34.3022C35.3475 35.4972 35.5343 36.7362 36.1069 37.8073C36.6796 38.8783 37.6024 39.7147 38.7175 40.1733L37.2122 49.3087H44.1331L42.6278 40.1733Z" fill="#07C4D0"/>
</g>
</g>
</svg>
