<svg width="83" height="81" viewBox="0 0 83 81" fill="none" xmlns="http://www.w3.org/2000/svg">
<g id="63072210dc776c04e48d6e0a_%E2%9C%8F%EF%B8%8F.svg">
<rect x="0.5" y="0.0549316" width="82" height="80" rx="20" fill="#E2F5E5" fill-opacity="0.6"/>
<g id="Group 1261152857">
<path id="Vector" d="M23.697 31.4919C27.789 31.1098 31.7972 29.8224 35.4054 27.7314C37.1621 26.719 39.1063 26.0837 41.0949 25.8722C43.0836 25.6607 45.0659 25.8785 46.8962 26.5094" stroke="#39C936" stroke-width="3" stroke-linecap="round" stroke-linejoin="round"/>
<path id="Vector_2" d="M42.4363 39.1791C36.2609 42.7552 29.3034 44.7454 22.2224 44.9616" stroke="#39C936" stroke-width="3" stroke-linecap="round" stroke-linejoin="round"/>
<path id="Vector_3" d="M38.4512 33.0689C40.0482 32.1468 41.9443 31.894 43.7225 32.366C45.5006 32.838 47.0151 33.9961 47.9328 35.5856C48.8505 37.1751 49.0962 39.0657 48.6159 40.8417C48.1356 42.6176 46.9685 44.1332 45.3715 45.0553C39.1716 48.6513 32.2528 50.829 25.1169 51.4303" stroke="#39C936" stroke-width="3" stroke-linecap="round" stroke-linejoin="round"/>
<path id="Vector_4" d="M41.3346 62.0352C45.164 60.7092 48.8597 59.0222 52.3713 56.9971C57.1266 54.2516 60.6053 49.7447 62.0421 44.4679C63.4788 39.1911 62.756 33.5766 60.0326 28.8596C57.3093 24.1425 52.8084 20.7093 47.5201 19.3152C42.2319 17.9211 36.5895 18.6803 31.8342 21.4257C29.8006 22.6069 27.5795 23.4296 25.2692 23.8574" stroke="#39C936" stroke-width="3" stroke-linecap="round" stroke-linejoin="round"/>
<path id="Vector_5" d="M32.1219 35.8823C28.6719 37.0715 25.0759 37.728 21.4686 37.8272" stroke="#39C936" stroke-width="3" stroke-linecap="round" stroke-linejoin="round"/>
<path id="Vector_6" d="M52.9744 31.4146C53.3017 31.846 53.6027 32.2963 53.8758 32.7634C55.5931 35.738 55.9994 39.307 55.0053 42.6853C54.0112 46.0637 51.6981 48.9746 48.5748 50.7778C46.6055 51.9127 44.5715 52.9309 42.4844 53.8269" stroke="#39C936" stroke-width="3" stroke-linecap="round" stroke-linejoin="round"/>
<path id="Vector_7" d="M36.2783 56.1933C34.895 56.7445 33.4974 57.271 32.1289 57.7478" stroke="#39C936" stroke-width="3" stroke-linecap="round" stroke-linejoin="round"/>
</g>
</g>
</svg>
