<svg width="57" height="57" viewBox="0 0 57 57" fill="none" xmlns="http://www.w3.org/2000/svg">
<g id="majesticons:dollar-circle-line">
<g id="Group">
<path id="Vector" d="M28.181 51.3883C41.068 51.3883 51.5143 40.942 51.5143 28.055C51.5143 15.168 41.068 4.72162 28.181 4.72162C15.294 4.72162 4.84766 15.168 4.84766 28.055C4.84766 40.942 15.294 51.3883 28.181 51.3883Z" stroke="#0E99FF" stroke-width="4" stroke-linecap="round" stroke-linejoin="round"/>
<path id="Vector_2" d="M35.1797 18.7216H28.1797M28.1797 18.7216H25.8464C24.6087 18.7216 23.4217 19.2133 22.5465 20.0884C21.6714 20.9636 21.1797 22.1506 21.1797 23.3883C21.1797 24.6259 21.6714 25.8129 22.5465 26.6881C23.4217 27.5633 24.6087 28.0549 25.8464 28.0549H30.513C31.7507 28.0549 32.9377 28.5466 33.8129 29.4218C34.688 30.2969 35.1797 31.4839 35.1797 32.7216C35.1797 33.9593 34.688 35.1463 33.8129 36.0214C32.9377 36.8966 31.7507 37.3883 30.513 37.3883H28.1797M28.1797 18.7216V14.0549M21.1797 37.3883H28.1797M28.1797 37.3883V42.0549" stroke="#0E99FF" stroke-width="4" stroke-linecap="round" stroke-linejoin="round"/>
</g>
</g>
</svg>
