<svg width="25" height="24" viewBox="0 0 25 24" fill="none" xmlns="http://www.w3.org/2000/svg">
<g id="Group">
<path id="Vector" d="M24.1875 12.0549C24.1875 5.59853 18.9564 0.367432 12.5 0.367432C6.0436 0.367432 0.8125 5.59853 0.8125 12.0549C0.8125 18.5113 6.0436 23.7424 12.5 23.7424C18.9564 23.7424 24.1875 18.5113 24.1875 12.0549ZM3.0746 12.0549C3.0746 6.8474 7.29246 2.62953 12.5 2.62953C17.7075 2.62953 21.9254 6.8474 21.9254 12.0549C21.9254 17.2625 17.7075 21.4803 12.5 21.4803C7.29246 21.4803 3.0746 17.2625 3.0746 12.0549ZM6.46774 12.9975V11.1124C6.46774 10.8014 6.72223 10.5469 7.03327 10.5469H12.5V7.38936C12.5 6.8851 13.1079 6.63532 13.4661 6.98878L18.1317 11.6544C18.3532 11.8758 18.3532 12.234 18.1317 12.4555L13.4661 17.1211C13.1079 17.4793 12.5 17.2248 12.5 16.7205V13.563H7.03327C6.72223 13.563 6.46774 13.3085 6.46774 12.9975Z" fill="white"/>
</g>
</svg>
