<svg width="110" height="111" viewBox="0 0 110 111" fill="none" xmlns="http://www.w3.org/2000/svg">
<g id="Group">
<rect id="Rectangle 2879" y="0.5" width="110" height="110" rx="20" fill="white"/>
<g id="Group 1261152828">
<path id="Vector" d="M55.1386 60.7398C54.4172 60.7398 53.7254 60.4532 53.2153 59.9431C52.7052 59.433 52.4186 58.7411 52.4186 58.0198V49.8597C52.4186 49.1383 52.7052 48.4464 53.2153 47.9363C53.7254 47.4262 54.4172 47.1396 55.1386 47.1396C55.86 47.1396 56.5519 47.4262 57.062 47.9363C57.5721 48.4464 57.8587 49.1383 57.8587 49.8597V58.0198C57.8587 58.7411 57.5721 59.433 57.062 59.9431C56.5519 60.4532 55.86 60.7398 55.1386 60.7398ZM51.0586 67.5398C51.0586 66.4578 51.4885 65.42 52.2536 64.6548C53.0188 63.8897 54.0565 63.4598 55.1386 63.4598C56.2207 63.4598 57.2585 63.8897 58.0237 64.6548C58.7888 65.42 59.2187 66.4578 59.2187 67.5398C59.2187 68.6219 58.7888 69.6597 58.0237 70.4249C57.2585 71.19 56.2207 71.6199 55.1386 71.6199C54.0565 71.6199 53.0188 71.19 52.2536 70.4249C51.4885 69.6597 51.0586 68.6219 51.0586 67.5398Z" fill="url(#paint0_linear_602_8330)"/>
<path id="Vector_2" d="M50.3255 31.407C52.3655 27.531 57.9144 27.531 59.9544 31.407L82.6476 74.5249C84.5543 78.148 81.9322 82.5 77.8331 82.5H32.4468C28.3531 82.5 25.7283 78.148 27.6323 74.5276L50.3255 31.407ZM77.8359 77.0599L55.14 33.9394L32.4441 77.0599H77.8359Z" fill="url(#paint1_linear_602_8330)"/>
</g>
</g>
<defs>
<linearGradient id="paint0_linear_602_8330" x1="51.0586" y1="47.1396" x2="66.2858" y2="54.3234" gradientUnits="userSpaceOnUse">
<stop stop-color="#FF9737"/>
<stop offset="1" stop-color="#CA7F19"/>
</linearGradient>
<linearGradient id="paint1_linear_602_8330" x1="27" y1="28.5" x2="67.4286" y2="88.1371" gradientUnits="userSpaceOnUse">
<stop stop-color="#FF9737"/>
<stop offset="1" stop-color="#CA7F19"/>
</linearGradient>
</defs>
</svg>
