<svg width="110" height="110" viewBox="0 0 110 110" fill="none" xmlns="http://www.w3.org/2000/svg">
<g id="Group 1261152827">
<rect id="Rectangle 2879" width="110" height="110" rx="20" fill="white"/>
<path id="Vector" d="M79.3027 40.1176C79.9909 40.1184 80.6529 40.3825 81.1534 40.8559C81.6539 41.3294 81.955 41.9765 81.9954 42.665C82.0357 43.3534 81.8122 44.0314 81.3704 44.5603C80.9287 45.0891 80.3021 45.429 79.6186 45.5105L79.3027 45.5294V72.5882C79.9909 72.589 80.6529 72.8531 81.1534 73.3265C81.6539 73.8 81.955 74.447 81.9954 75.1355C82.0357 75.824 81.8122 76.502 81.3704 77.0308C80.9287 77.5597 80.3021 77.8996 79.6186 77.9811L79.3027 78H30.6973C30.0091 77.9992 29.3471 77.7351 28.8466 77.2617C28.3461 76.7883 28.045 76.1412 28.0046 75.4527C27.9643 74.7642 28.1879 74.0863 28.6296 73.5574C29.0713 73.0285 29.6979 72.6886 30.3814 72.6072L30.6973 72.5882V45.5294C30.0091 45.5286 29.3471 45.2646 28.8466 44.7911C28.3461 44.3177 28.045 43.6706 28.0046 42.9821C27.9643 42.2936 28.1879 41.6157 28.6296 41.0868C29.0713 40.5579 29.6979 40.218 30.3814 40.1366L30.6973 40.1176H79.3027ZM73.9021 45.5294H36.0979V72.5882H41.4985V53.6471C41.4985 52.9294 41.783 52.2412 42.2894 51.7337C42.7958 51.2263 43.4826 50.9412 44.1988 50.9412C44.915 50.9412 45.6018 51.2263 46.1082 51.7337C46.6146 52.2412 46.8991 52.9294 46.8991 53.6471V72.5882H52.2997V53.6471C52.2997 52.9294 52.5842 52.2412 53.0906 51.7337C53.597 51.2263 54.2838 50.9412 55 50.9412C55.7162 50.9412 56.403 51.2263 56.9094 51.7337C57.4158 52.2412 57.7003 52.9294 57.7003 53.6471V72.5882H63.1009V53.6471C63.1009 52.9294 63.3854 52.2412 63.8918 51.7337C64.3982 51.2263 65.085 50.9412 65.8012 50.9412C66.5174 50.9412 67.2042 51.2263 67.7106 51.7337C68.217 52.2412 68.5015 52.9294 68.5015 53.6471V72.5882H73.9021V45.5294ZM71.2018 32C71.918 32 72.6048 32.2851 73.1112 32.7925C73.6176 33.3 73.9021 33.9882 73.9021 34.7059C73.9021 35.4235 73.6176 36.1118 73.1112 36.6192C72.6048 37.1267 71.918 37.4118 71.2018 37.4118H38.7982C38.082 37.4118 37.3952 37.1267 36.8888 36.6192C36.3824 36.1118 36.0979 35.4235 36.0979 34.7059C36.0979 33.9882 36.3824 33.3 36.8888 32.7925C37.3952 32.2851 38.082 32 38.7982 32H71.2018Z" fill="url(#paint0_linear_602_8318)"/>
</g>
<defs>
<linearGradient id="paint0_linear_602_8318" x1="30.3346" y1="36.3035" x2="83.6001" y2="38.8805" gradientUnits="userSpaceOnUse">
<stop stop-color="#3DD5F7"/>
<stop offset="1" stop-color="#3E8DF7"/>
</linearGradient>
</defs>
</svg>
