<svg width="110" height="110" viewBox="0 0 110 110" fill="none" xmlns="http://www.w3.org/2000/svg">
<g id="Group 1261152829">
<rect id="Rectangle 2879" width="110" height="110" rx="20" fill="white"/>
<path id="Vector" d="M54.8821 46C52.4946 46 50.2049 46.9485 48.5167 48.6367C46.8285 50.3249 45.88 52.6147 45.88 55.0022C45.88 57.3897 46.8285 59.6794 48.5167 61.3676C50.2049 63.0559 52.4946 64.0043 54.8821 64.0043C57.2697 64.0043 59.5594 63.0559 61.2476 61.3676C62.9358 59.6794 63.8843 57.3897 63.8843 55.0022C63.8843 52.6147 62.9358 50.3249 61.2476 48.6367C59.5594 46.9485 57.2697 46 54.8821 46ZM50.3811 55.0022C50.3811 53.8084 50.8553 52.6635 51.6994 51.8194C52.5435 50.9753 53.6884 50.5011 54.8821 50.5011C56.0759 50.5011 57.2208 50.9753 58.0649 51.8194C58.909 52.6635 59.3832 53.8084 59.3832 55.0022C59.3832 56.1959 58.909 57.3408 58.0649 58.1849C57.2208 59.029 56.0759 59.5032 54.8821 59.5032C53.6884 59.5032 52.5435 59.029 51.6994 58.1849C50.8553 57.3408 50.3811 56.1959 50.3811 55.0022ZM66.6659 38.7893C65.8358 38.9418 64.979 38.7588 64.2837 38.2803C63.5884 37.8018 63.1113 37.0671 62.9571 36.2372L61.7868 29.8637C61.7294 29.5533 61.5811 29.267 61.3607 29.041C61.1404 28.815 60.8578 28.6596 60.549 28.5944C56.8111 27.8019 52.9486 27.8019 49.2108 28.5944C48.902 28.6596 48.6194 28.815 48.3991 29.041C48.1787 29.267 48.0304 29.5533 47.973 29.8637L46.8072 36.2372C46.7221 36.6912 46.5396 37.1213 46.2723 37.4979C46.005 37.8745 45.6592 38.1887 45.2588 38.4189C44.8584 38.649 44.4128 38.7897 43.9528 38.8311C43.4928 38.8725 43.0293 38.8137 42.5942 38.6588L36.4773 36.4803C36.1805 36.374 35.8589 36.3579 35.5529 36.434C35.2469 36.51 34.9703 36.6749 34.7579 36.9079C32.1942 39.7299 30.2581 43.0635 29.0776 46.6887C28.9801 46.9885 28.9744 47.3105 29.061 47.6136C29.1476 47.9167 29.3226 48.187 29.5637 48.3901L34.5238 52.5806C34.8763 52.878 35.1595 53.2488 35.3539 53.6671C35.5482 54.0854 35.6488 54.541 35.6488 55.0022C35.6488 55.4633 35.5482 55.919 35.3539 56.3372C35.1595 56.7555 34.8763 57.1263 34.5238 57.4237L29.5637 61.6142C29.3226 61.8173 29.1476 62.0877 29.061 62.3907C28.9744 62.6938 28.9801 63.0158 29.0776 63.3156C30.259 66.9415 32.1966 70.2752 34.7624 73.0964C34.9748 73.3294 35.2514 73.4943 35.5574 73.5704C35.8634 73.6465 36.185 73.6303 36.4818 73.524L42.6032 71.3455C43.0383 71.189 43.5021 71.129 43.9627 71.1697C44.4232 71.2104 44.8694 71.3508 45.2702 71.5812C45.6711 71.8116 46.017 72.1265 46.2839 72.5039C46.5509 72.8814 46.7325 73.3124 46.8162 73.7671L47.9775 80.1406C48.0945 80.7707 48.5852 81.2749 49.2153 81.4054C52.9546 82.1982 56.8187 82.1982 60.558 81.4054C60.8656 81.3403 61.1471 81.1853 61.3666 80.9602C61.5862 80.735 61.7339 80.4498 61.7913 80.1406L62.9616 73.7671C63.0467 73.3132 63.2292 72.8831 63.4965 72.5064C63.7638 72.1298 64.1096 71.8156 64.51 71.5854C64.9104 71.3553 65.356 71.2147 65.816 71.1732C66.276 71.1318 66.7395 71.1906 67.1745 71.3455L73.2915 73.524C73.8991 73.7401 74.5788 73.569 75.0109 73.0964C77.5746 70.2745 79.5106 66.9409 80.6912 63.3156C80.7886 63.0158 80.7944 62.6938 80.7078 62.3907C80.6212 62.0877 80.4462 61.8173 80.2051 61.6142L75.2449 57.4237C74.8918 57.1267 74.6079 56.7561 74.4132 56.3378C74.2184 55.9194 74.1175 55.4636 74.1175 55.0022C74.1175 54.5407 74.2184 54.0849 74.4132 53.6666C74.6079 53.2483 74.8918 52.8776 75.2449 52.5806L80.2051 48.3901C80.4462 48.187 80.6212 47.9167 80.7078 47.6136C80.7944 47.3105 80.7886 46.9885 80.6912 46.6887C79.5086 43.0624 77.5694 39.7286 75.0019 36.9079C74.7895 36.6749 74.5128 36.51 74.2069 36.434C73.9009 36.3579 73.5793 36.374 73.2825 36.4803L67.161 38.6588C66.9984 38.7172 66.8313 38.7624 66.6614 38.7938L66.6659 38.7893ZM36.8689 41.4L41.0864 42.8988C42.1358 43.2724 43.2538 43.4138 44.3632 43.3131C45.4726 43.2125 46.5469 42.8722 47.5119 42.3159C48.477 41.7595 49.3098 41.0003 49.9528 40.0907C50.5958 39.1811 51.0337 38.1428 51.2363 37.0474L52.033 32.6814C53.9236 32.4453 55.8362 32.4453 57.7268 32.6814L58.528 37.0474C58.7292 38.1435 59.1662 39.1828 59.8089 40.0933C60.4515 41.0037 61.2844 41.7635 62.2499 42.3201C63.2154 42.8767 64.2903 43.2167 65.4002 43.3167C66.5102 43.4166 67.6285 43.274 68.6779 42.8988L72.8864 41.3955C74.0342 42.8988 74.9884 44.5372 75.7221 46.2746L72.3283 49.1418C71.4755 49.8618 70.7902 50.7592 70.32 51.7713C69.8499 52.7835 69.6064 53.8861 69.6064 55.0022C69.6064 56.1182 69.8499 57.2208 70.32 58.233C70.7902 59.2452 71.4755 60.1426 72.3283 60.8625L75.7266 63.7297C74.9902 65.4689 74.0375 67.1082 72.8909 68.6089L68.6734 67.1055C67.624 66.7319 66.506 66.5906 65.3966 66.6912C64.2872 66.7918 63.2129 67.1321 62.2479 67.6884C61.2828 68.2448 60.45 69.004 59.807 69.9136C59.164 70.8232 58.7261 71.8615 58.5235 72.9569L57.7223 77.3229C55.8317 77.5593 53.9191 77.5593 52.0285 77.3229L51.2318 72.9569C51.0306 71.8608 50.5936 70.8215 49.9509 69.9111C49.3083 69.0006 48.4753 68.2408 47.5099 67.6842C46.5444 67.1276 45.4695 66.7876 44.3595 66.6877C43.2496 66.5877 42.1312 66.7303 41.0819 67.1055L36.8779 68.6089C35.7312 67.1083 34.7784 65.4689 34.0422 63.7297L37.436 60.858C38.288 60.1381 38.9727 59.2409 39.4423 58.2292C39.912 57.2174 40.1553 56.1154 40.1553 54.9999C40.1553 53.8845 39.912 52.7824 39.4423 51.7707C38.9727 50.7589 38.288 49.8618 37.436 49.1418L34.0377 46.2746C34.777 44.5369 35.7296 42.898 36.8734 41.3955L36.8689 41.4Z" fill="url(#paint0_linear_602_8344)"/>
</g>
<defs>
<linearGradient id="paint0_linear_602_8344" x1="29" y1="28" x2="70.5714" y2="84.4056" gradientUnits="userSpaceOnUse">
<stop stop-color="#FF3541"/>
<stop offset="1" stop-color="#B80808"/>
</linearGradient>
</defs>
</svg>
